<svg width="24" height="16" viewBox="0 0 24 16" fill="none" xmlns="http://www.w3.org/2000/svg">
<path d="M22.7965 0.771518C22.7125 0.718268 22.6105 0.686768 22.5002 0.686768C22.4087 0.686768 22.3217 0.709267 22.2452 0.748267L22.2482 0.746768L17.0447 3.34777C16.9652 2.27827 16.0795 1.44052 14.998 1.43677H3.00098C1.86248 1.43827 0.939977 2.36077 0.938477 3.49927V12.5C0.939977 13.6385 1.86248 14.561 3.00098 14.5625H14.998C16.0802 14.5588 16.9652 13.721 17.0447 12.659L17.0455 12.6523L22.2497 15.2533C22.3225 15.2908 22.408 15.3133 22.4995 15.3133H22.5017H22.5032C22.813 15.3133 23.0642 15.062 23.0642 14.7523V14.7508V1.25077C23.0642 1.04977 22.9585 0.873517 22.8002 0.773767L22.798 0.772267L22.7965 0.771518ZM15.9347 12.5C15.934 13.0175 15.5147 13.4368 14.9972 13.4375H3.00023C2.48273 13.4368 2.06348 13.0175 2.06273 12.5V3.49927C2.06348 2.98177 2.48273 2.56252 3.00023 2.56177H14.9972C15.5147 2.56252 15.934 2.98177 15.9347 3.49927V12.5ZM21.9377 13.8403L17.0597 11.4028V4.59802L21.9377 2.15977V13.8403Z" fill="#253C4F"/>
</svg>
