<svg width="70" height="51" viewBox="0 0 70 51" fill="none" xmlns="http://www.w3.org/2000/svg">
<path d="M34.3219 15.1547C29.1407 15.1547 24.9141 19.7723 24.9141 25.46C24.9141 31.1329 29.1267 35.7652 34.3219 35.7652C39.5021 35.7652 43.7287 31.1476 43.7287 25.46C43.7287 19.7869 39.5021 15.1547 34.3219 15.1547Z" fill="#253C4F"/>
<path d="M34.3202 41.7459C25.9807 41.7459 19.185 34.4458 19.185 25.4598C19.185 16.4739 25.9807 9.17379 34.3202 9.17379C42.6607 9.17379 49.4564 16.4739 49.4564 25.4598C49.4564 34.4458 42.6607 41.7459 34.3202 41.7459ZM68.9022 23.8767C59.9447 8.86592 47.8698 0.598267 34.9383 0.598267C22.0067 0.598267 9.9319 8.86592 0.974346 23.8767C0.399176 24.8442 0.399176 26.0756 0.974346 27.043C9.9319 42.0538 22.0067 50.3214 34.9383 50.3214C47.8698 50.3214 59.9307 42.0538 68.9022 27.043C69.4783 26.0756 69.4783 24.8442 68.9022 23.8767Z" fill="#AC1754"/>
</svg>
